# xmcd
#
# Track frame offsets:
#	150
#	15605
#	29356
#	39810
#	54415
#	86614
#	106747
#	119078
#	134671
#	143354
#	154525
#	165174
#	177966
#	190894
#	201938
#
# Disc length: 2989
#
# Revision: 2
# Processed by: cddbd v1.5.1PL0 Copyright (c) Steve Scherf et al.
# Submitted via: EasyCDDAExtractor 6.2.0.3
# Normalized: r1:DSETVAR1
#
DISCID=ba0bab0f
DTITLE=Various Artist - Soul Volume - Knock On Wood
DYEAR=2001
DGENRE=Soul
TTITLE0=Eddie Floyd - Knock On Wood
TTITLE1=Aaron Neville - Tell It Like It Is
TTITLE2=Chaka Khan - I Know You, I Live You
TTITLE3=Percy Sledge - I'll Be Your Everything
TTITLE4=The Temptations - Papa Was A Rolling Stone
TTITLE5=Rose Royce - Wishing On A Star (live)
TTITLE6=Lee Dorsey - Working In The Coal Mine
TTITLE7=Al Wilson - Show And Tell
TTITLE8=The Drifters - Saturday Night At The Movies
TTITLE9=Gene Chandler - You Threw A Lucky Punch
TTITLE10=Sam and Dave - Soul Sister, Brown Sugar
TTITLE11=Isaac Hayes - A Few More Kisses To Go
TTITLE12=The Dells - Oh! What A Nite
TTITLE13=Ernie K-Doe - Mother In Law
TTITLE14=Marvin Gaye - I Heard It Through The Grapevine (live)
EXTD=
EXTT0=
EXTT1=
EXTT2=
EXTT3=
EXTT4=
EXTT5=
EXTT6=
EXTT7=
EXTT8=
EXTT9=
EXTT10=
EXTT11=
EXTT12=
EXTT13=
EXTT14=
PLAYORDER=
